<svg xmlns="http://www.w3.org/2000/svg" xmlns:xlink="http://www.w3.org/1999/xlink" width="242" height="48" viewBox="0 0 242 48">
    <defs>
        <path id="a" d="M0 0h255.118v56.693H0z"/>
    </defs>
    <g fill="none" fill-rule="evenodd" transform="translate(-10 -2)">
        <mask id="b" fill="#fff">
            <use xlink:href="#a"/>
        </mask>
        <g mask="url(#b)">
            <path fill="#3E8AEE" d="M73.468 32.693v-7.666c1.133-1.17 2.225-1.699 3.439-1.699 2.386 0 3.479 1.699 3.479 5.06 0 3.852-1.659 5.513-3.722 5.513-1.011 0-2.144-.302-3.196-1.208zm41.538 5.287h2.797V25.33c1.295-1.171 2.225-1.813 3.722-1.813 1.699 0 2.467.831 2.467 3.549V37.98h5.947V26.349c0-4.682-1.861-7.552-6.23-7.552-2.71 0-4.692 1.321-6.189 2.568l.283-3.361V11.508h-3.229c-1.439.116-2.594 1.194-2.717 2.537v21.323c.088 1.4 1.298 2.53 2.797 2.612h.352zm39.77-2.153c2.022 1.548 5.056 2.606 7.686 2.606 5.379 0 8.252-2.644 8.252-6.042 0-3.436-2.873-4.758-5.421-5.627-2.063-.717-3.924-1.17-3.924-2.379 0-.944.728-1.472 2.265-1.472 1.416 0 2.792.604 4.248 1.586l2.67-3.323c-1.74-1.209-4.005-2.379-7.079-2.379-4.652 0-7.686 2.379-7.686 5.853 0 3.096 2.872 4.645 5.299 5.513 2.063.755 4.085 1.321 4.085 2.568 0 .982-.768 1.586-2.548 1.586-1.699 0-3.357-.68-5.178-1.964l-2.669 3.474zm24.634-3.474c0-1.435 1.375-2.568 5.623-3.096v3.285c-1.052.982-1.942 1.586-3.317 1.586-1.416 0-2.306-.566-2.306-1.775zm-39.52 0c0-1.435 1.375-2.568 5.622-3.096v3.285c-1.051.982-1.941 1.586-3.316 1.586-1.417 0-2.306-.566-2.306-1.775zM70.756 37.98h1.418l.143-.577.343-1.387h.162c.122.123.247.242.372.356 1.494 1.354 3.204 2.061 4.846 2.061 4.328 0 8.454-3.701 8.454-10.158 0-5.74-3.034-9.478-7.888-9.478-1.861 0-3.762.793-5.299 2.077l.161-2.87v-3.625l.002-.095v-.001l-.002-.095v-2.68h-2.871l-.101-.001h-.001c-1.637 0-2.975 1.249-2.975 2.776v.001l.002.095v21.079c.128 1.333 1.274 2.402 2.702 2.522h.532zm102.991-5.211c0 3.172 2.306 5.664 5.946 5.664 2.135 0 3.946-.872 5.569-2.141.1-.078.199-.157.297-.238h.121l.268 1.16.177.766h2.11c1.458-.105 2.632-1.201 2.744-2.562v-8.163c0-5.74-2.831-8.458-7.969-8.458-2.205 0-4.273.498-6.188 1.288a19.95 19.95 0 0 0-.564.243c-.624.374-1.04 1.028-1.04 1.768 0 .324.08.632.223.907l.087.151 1.01 1.76c1.942-1.057 3.641-1.699 5.34-1.699 2.144 0 3.033 1.057 3.155 2.719-7.928.755-11.286 2.907-11.286 6.835zm-39.521 0c0 3.172 2.306 5.664 5.947 5.664 2.134 0 3.946-.872 5.569-2.141.099-.078.198-.157.296-.238h.122l.268 1.16.176.766h2.11c1.459-.105 2.632-1.201 2.745-2.562v-8.163c0-5.74-2.832-8.458-7.969-8.458-2.206 0-4.273.498-6.188 1.288-.19.078-.378.159-.565.243-.623.374-1.039 1.028-1.039 1.768 0 .324.08.632.222.907l.087.151 1.01 1.76c1.942-1.057 3.641-1.699 5.34-1.699 2.144 0 3.034 1.057 3.155 2.719-7.928.755-11.286 2.907-11.286 6.835zm-39.035-.416c0-1.435 1.375-2.568 5.623-3.096v3.285c-1.052.982-1.942 1.586-3.317 1.586-1.416 0-2.306-.566-2.306-1.775zm-5.663.416c0 3.172 2.305 5.664 5.946 5.664 2.135 0 3.946-.872 5.569-2.141.1-.078.199-.157.297-.238h.121l.268 1.16.177.766h2.11c1.458-.105 2.632-1.201 2.744-2.562v-8.163c0-5.74-2.831-8.458-7.969-8.458-2.206 0-4.273.498-6.188 1.288-.19.078-.377.159-.564.243-.624.374-1.04 1.028-1.04 1.768 0 .324.08.632.222.907l.087.151 1.011 1.76c1.941-1.057 3.64-1.699 5.339-1.699 2.145 0 3.034 1.057 3.156 2.719-7.929.755-11.286 2.907-11.286 6.835zM200.269 35.253v-2.22l4.369-4.758 6.431 9.705h1.982l-7.362-10.951L212 19.854h-2.063l-9.587 10.989h-.081V10.829H199.332c-.453.021-.82.364-.843.787v25.576c.023.424.39.766.843.788H200.269V35.253zm16.989 2.727h1.78V19.854h-1.78V37.98zm9.709-5.023c0 3.248 1.092 5.476 4.854 5.476.809 0 2.022-.302 3.155-.68l-.485-1.359c-.688.302-1.699.566-2.428.566-2.669 0-3.276-1.548-3.276-3.852V21.289h5.622v-1.435h-5.622v-4.431a.773.773 0 0 0 0-.169v-.649h-.696a.905.905 0 0 0-.09-.005c-.406 0-.741.287-.787.654l-.005.105.003.047-.205 4.448-3.074.151v1.284h3.034v11.668zm12.094.416c0-2.87 2.711-4.607 10.679-5.476v6.156c-2.386 1.925-4.368 2.945-6.593 2.945-2.225 0-4.086-1.02-4.086-3.625zm-1.861.075c0 3.437 2.589 4.985 5.664 4.985 2.548 0 4.894-1.322 6.876-2.794h.081l.116 1.338.052.601.035.402h.747c.398-.029.719-.328.749-.7V26.387c0-3.89-1.537-6.986-6.148-6.986-2.7 0-5.044 1.051-6.527 1.922l-.019.01-.002.001-.015.009-.017.009-.015.01-.003.001a.692.692 0 0 0-.272.891l.1.153.005.005.374.576c1.769-1.24 3.978-2.114 6.189-2.114 3.802 0 4.651 2.983 4.57 5.739-8.616.906-12.54 2.832-12.54 6.835zM54.177 7.072c2.737 4.164 4.323 9.102 4.323 14.397 0 5.296-1.586 10.234-4.323 14.398l-3.748-2.592a21.793 21.793 0 0 0 3.469-11.806c0-4.33-1.27-8.374-3.469-11.806l3.748-2.591zM30.588 17.185c2.453 0 4.442 1.918 4.442 4.284 0 2.366-1.989 4.284-4.442 4.284-2.453 0-4.441-1.918-4.441-4.284 0-2.366 1.988-4.284 4.441-4.284zm10.822-1.287a11.445 11.445 0 0 1 1.443 5.571c0 2.014-.522 3.911-1.443 5.571l-3.793-2.623c.408-.903.634-1.9.634-2.948a7.138 7.138 0 0 0-.634-2.948l3.793-2.623zm6.393-4.42a18.775 18.775 0 0 1 2.874 9.991c0 3.655-1.05 7.074-2.874 9.991l-3.756-2.597a14.465 14.465 0 0 0 2.028-7.394c0-2.69-.738-5.214-2.028-7.394l3.756-2.597z"/>
            <path fill="#3E8AEE" d="M30.588 2.092c6.149 0 11.651 2.665 15.336 6.863l-10.185 7.041a7.796 7.796 0 0 0-5.151-1.919c-4.232 0-7.663 3.31-7.663 7.392 0 4.082 3.431 7.392 7.663 7.392 1.983 0 3.79-.727 5.151-1.919l10.185 7.042c-.416.473-.855.927-1.315 1.36L30.588 49.848v-9.001c-11.094 0-20.088-8.676-20.088-19.378S19.494 2.092 30.588 2.092z"/>
            <path fill="#3E8AEE" d="M54.177 7.072c2.737 4.164 4.323 9.102 4.323 14.397 0 5.296-1.586 10.234-4.323 14.398l-3.748-2.592a21.793 21.793 0 0 0 3.469-11.806c0-4.33-1.27-8.374-3.469-11.806l3.748-2.591zM30.588 17.185c2.453 0 4.442 1.918 4.442 4.284 0 2.366-1.989 4.284-4.442 4.284-2.453 0-4.441-1.918-4.441-4.284 0-2.366 1.988-4.284 4.441-4.284zm10.822-1.287a11.445 11.445 0 0 1 1.443 5.571c0 2.014-.522 3.911-1.443 5.571l-3.793-2.623c.408-.903.634-1.9.634-2.948a7.138 7.138 0 0 0-.634-2.948l3.793-2.623zm6.393-4.42a18.775 18.775 0 0 1 2.874 9.991c0 3.655-1.05 7.074-2.874 9.991l-3.756-2.597a14.465 14.465 0 0 0 2.028-7.394c0-2.69-.738-5.214-2.028-7.394l3.756-2.597z"/>
            <path d="M30.588 2.092c6.149 0 11.651 2.665 15.336 6.863l-10.185 7.041a7.796 7.796 0 0 0-5.151-1.919c-4.232 0-7.663 3.31-7.663 7.392 0 4.082 3.431 7.392 7.663 7.392 1.983 0 3.79-.727 5.151-1.919l10.185 7.042c-.416.473-.855.927-1.315 1.36L30.588 49.848v-9.001c-11.094 0-20.088-8.676-20.088-19.378S19.494 2.092 30.588 2.092z"/>
        </g>
    </g>
</svg>
